<svg xmlns="http://www.w3.org/2000/svg" viewBox="90 0 470 470" fill="none">
  <!-- Digma brand mark — geometry decoded from the reference app's logo
       (pixel-measured 2026-09-28, session 10). See src/components/logo.tsx. -->
  <rect x="90" y="0" width="470" height="470" fill="#0d1017"/>
  <path d="M306,65 H234.5 A57.5,57.5 0 0 0 234.5,180 H306 Z" fill="#f33559"/>
  <path d="M308,66 H380.5 A55.5,55.5 0 0 1 380.5,177 H308 Z" fill="#f4a24c"/>
  <path d="M310,180 H234.5 A57.5,57.5 0 0 0 234.5,295 H310 Z" fill="#b03af2"/>
  <circle cx="414" cy="235" r="62" fill="#4cb6f2"/>
  <path d="M306,295 H234.5 A57.5,57.5 0 0 0 234.5,410 H306 Z" fill="#20bc72"/>
  <path d="M308,293 H375.5 A58.5,58.5 0 0 1 375.5,410 H308 Z" fill="#325ddd"/>
</svg>
